<mxfile host="Electron" modified="2023-12-04T15:05:06.112Z" agent="Mozilla/5.0 (Windows NT 10.0; Win64; x64) AppleWebKit/537.36 (KHTML, like Gecko) draw.io/21.7.5 Chrome/114.0.5735.289 Electron/25.8.1 Safari/537.36" etag="A_EXZX4PW4A4Aq5BDmvV" version="21.7.5" type="device">
  <diagram name="Page-1" id="xv6ig5bcRXEZJzdFj7eB">
    <mxGraphModel dx="1050" dy="621" grid="1" gridSize="10" guides="1" tooltips="1" connect="1" arrows="1" fold="1" page="1" pageScale="1" pageWidth="827" pageHeight="1169" math="0" shadow="0">
      <root>
        <mxCell id="0" />
        <mxCell id="1" parent="0" />
        <mxCell id="PWMEwsFNNQ_aCLIdafa5-9" style="edgeStyle=orthogonalEdgeStyle;rounded=0;orthogonalLoop=1;jettySize=auto;html=1;entryX=0;entryY=0.5;entryDx=0;entryDy=0;" edge="1" parent="1" source="PWMEwsFNNQ_aCLIdafa5-1" target="PWMEwsFNNQ_aCLIdafa5-3">
          <mxGeometry relative="1" as="geometry" />
        </mxCell>
        <mxCell id="PWMEwsFNNQ_aCLIdafa5-10" style="edgeStyle=orthogonalEdgeStyle;rounded=0;orthogonalLoop=1;jettySize=auto;html=1;entryX=0;entryY=0.5;entryDx=0;entryDy=0;" edge="1" parent="1" source="PWMEwsFNNQ_aCLIdafa5-1" target="PWMEwsFNNQ_aCLIdafa5-4">
          <mxGeometry relative="1" as="geometry" />
        </mxCell>
        <mxCell id="PWMEwsFNNQ_aCLIdafa5-11" style="edgeStyle=orthogonalEdgeStyle;rounded=0;orthogonalLoop=1;jettySize=auto;html=1;entryX=0;entryY=0.5;entryDx=0;entryDy=0;" edge="1" parent="1" source="PWMEwsFNNQ_aCLIdafa5-1" target="PWMEwsFNNQ_aCLIdafa5-5">
          <mxGeometry relative="1" as="geometry" />
        </mxCell>
        <mxCell id="PWMEwsFNNQ_aCLIdafa5-12" style="edgeStyle=orthogonalEdgeStyle;rounded=0;orthogonalLoop=1;jettySize=auto;html=1;entryX=0;entryY=0.5;entryDx=0;entryDy=0;" edge="1" parent="1" source="PWMEwsFNNQ_aCLIdafa5-1" target="PWMEwsFNNQ_aCLIdafa5-6">
          <mxGeometry relative="1" as="geometry" />
        </mxCell>
        <mxCell id="PWMEwsFNNQ_aCLIdafa5-13" style="edgeStyle=orthogonalEdgeStyle;rounded=0;orthogonalLoop=1;jettySize=auto;html=1;entryX=0;entryY=0.5;entryDx=0;entryDy=0;" edge="1" parent="1" source="PWMEwsFNNQ_aCLIdafa5-1" target="PWMEwsFNNQ_aCLIdafa5-7">
          <mxGeometry relative="1" as="geometry" />
        </mxCell>
        <mxCell id="PWMEwsFNNQ_aCLIdafa5-14" style="edgeStyle=orthogonalEdgeStyle;rounded=0;orthogonalLoop=1;jettySize=auto;html=1;entryX=0;entryY=0.5;entryDx=0;entryDy=0;" edge="1" parent="1" source="PWMEwsFNNQ_aCLIdafa5-1" target="PWMEwsFNNQ_aCLIdafa5-8">
          <mxGeometry relative="1" as="geometry" />
        </mxCell>
        <mxCell id="PWMEwsFNNQ_aCLIdafa5-1" value="Client" style="shape=umlActor;verticalLabelPosition=bottom;verticalAlign=top;html=1;outlineConnect=0;" vertex="1" parent="1">
          <mxGeometry x="120" y="490" width="30" height="60" as="geometry" />
        </mxCell>
        <mxCell id="PWMEwsFNNQ_aCLIdafa5-3" value="Se Connecter" style="ellipse;whiteSpace=wrap;html=1;" vertex="1" parent="1">
          <mxGeometry x="270" y="240" width="140" height="70" as="geometry" />
        </mxCell>
        <mxCell id="PWMEwsFNNQ_aCLIdafa5-4" value="S&#39;inscrire" style="ellipse;whiteSpace=wrap;html=1;" vertex="1" parent="1">
          <mxGeometry x="270" y="330" width="140" height="70" as="geometry" />
        </mxCell>
        <mxCell id="PWMEwsFNNQ_aCLIdafa5-5" value="Modifier ses informations" style="ellipse;whiteSpace=wrap;html=1;" vertex="1" parent="1">
          <mxGeometry x="270" y="430" width="140" height="70" as="geometry" />
        </mxCell>
        <mxCell id="PWMEwsFNNQ_aCLIdafa5-6" value="Ajouter des articles au panier" style="ellipse;whiteSpace=wrap;html=1;" vertex="1" parent="1">
          <mxGeometry x="270" y="530" width="140" height="70" as="geometry" />
        </mxCell>
        <mxCell id="PWMEwsFNNQ_aCLIdafa5-7" value="Acheter" style="ellipse;whiteSpace=wrap;html=1;" vertex="1" parent="1">
          <mxGeometry x="270" y="630" width="140" height="70" as="geometry" />
        </mxCell>
        <mxCell id="PWMEwsFNNQ_aCLIdafa5-8" value="Générer une facture" style="ellipse;whiteSpace=wrap;html=1;" vertex="1" parent="1">
          <mxGeometry x="270" y="720" width="140" height="70" as="geometry" />
        </mxCell>
        <mxCell id="PWMEwsFNNQ_aCLIdafa5-16" value="" style="rounded=0;whiteSpace=wrap;html=1;fillColor=none;" vertex="1" parent="1">
          <mxGeometry x="210" y="220" width="250" height="590" as="geometry" />
        </mxCell>
      </root>
    </mxGraphModel>
  </diagram>
</mxfile>
